<?xml version="1.0" encoding="UTF-8"?>
<!DOCTYPE svg PUBLIC "-//W3C//DTD SVG 1.1//EN" "http://www.w3.org/Graphics/SVG/1.1/DTD/svg11.dtd">
<!-- Creator: CorelDRAW -->
<svg xmlns="http://www.w3.org/2000/svg" xml:space="preserve" width="50.8mm" height="16.9332mm" version="1.1" style="shape-rendering:geometricPrecision; text-rendering:geometricPrecision; image-rendering:optimizeQuality; fill-rule:evenodd; clip-rule:evenodd"
viewBox="0 0 5080 1693.32"
 xmlns:xlink="http://www.w3.org/1999/xlink"
 xmlns:xodm="http://www.corel.com/coreldraw/odm/2003">
 <defs>
  <style type="text/css">
   <![CDATA[
    .fil0 {fill:#FEFEFE}
   ]]>
  </style>
 </defs>
 <g id="Capa_x0020_1">
  <metadata id="CorelCorpID_0Corel-Layer"/>
  <path class="fil0" d="M2757.61 548.56l0 537.19c0.29,55.99 28.75,82.5 82.69,82.64l1033.19 0 0 -165.28 -867.91 0 -39.73 0.19 -1.56 -41.54 0 -41.29 867.85 0c26.02,0.68 39.35,-13.62 41.35,-41.35l0 -123.99c-3.08,-25.23 -15.82,-40.17 -41.35,-41.29l-867.85 0 0 -82.64 909.2 0 0 -206.63 -991.89 0c-73.42,13.37 -114.28,55.06 -123.99,123.99z"/>
  <polygon class="fil0" points="105.83,420.34 105.83,1164.16 312.46,1164.16 312.46,916.24 313.53,876.01 353.8,874.89 1015.08,874.89 1015.08,1164.16 1263.06,1164.16 1263.06,420.34 1015.08,420.34 1015.08,709.61 353.8,709.61 314.17,707.9 312.46,668.26 312.46,420.34 "/>
  <polygon class="fil0" points="4986.84,420.34 3912.3,420.34 3912.3,626.97 4366.91,626.97 4366.91,1164.16 4573.53,1164.16 4573.53,626.97 4986.84,626.97 "/>
  <path class="fil0" d="M1597.9 1040.17c-0.83,70.1 28.12,109.98 82.64,123.99l1033.24 0 0 -165.28 -867.91 0 0 -578.54 -247.97 0 0 619.83z"/>
  <polygon class="fil0" points="1303.86,419.07 1303.86,461.68 1303.86,1122.82 1303.86,1164.16 1345.21,1164.16 1551.84,1164.16 1551.84,420.34 1345.21,420.34 "/>
 </g>
</svg>
